<svg width="200" height="200" viewBox="0 0 200 200" fill="none" xmlns="http://www.w3.org/2000/svg">
<g clip-path="url(#clip0)">
<path d="M138 40C127.8 45.1 113.4 54.3 106.5 70.5C96.8 93.2 109.7 111.1 99.5 128.5C94.7 136.7 83.5 146.8 54 150" stroke="url(#paint0_linear)" stroke-width="10" stroke-miterlimit="10"/>
<path d="M159 59C148.8 64.1 134.4 73.3 127.5 89.5C117.8 112.2 130.7 130.1 120.5 147.5C115.7 155.7 104.5 165.8 75 169" stroke="url(#paint1_linear)" stroke-width="10" stroke-miterlimit="10"/>
<path d="M185 80C174.679 84.8682 160.107 93.65 153.125 109.114C143.31 130.782 156.363 147.868 146.042 164.477C141.185 172.305 129.851 181.945 100 185" stroke="url(#paint2_linear)" stroke-width="10" stroke-miterlimit="10"/>
<path d="M58.7737 42.9237C58.0327 42.9228 56.7416 42.1803 56.7426 41.3253C56.7436 40.4703 57.8659 39.4076 59.3868 38.6874C59.4041 40.0555 59.4406 41.3285 59.4398 42.0125C59.4391 42.6015 59.2107 42.9242 58.7737 42.9237ZM60.7578 36.1431C60.7587 35.3831 60.7788 34.4901 60.7989 33.5971C62.1671 33.4468 63.6114 33.2015 64.7137 32.9558L64.6965 31.4548C63.6321 31.7765 62.2068 32.0408 60.8385 32.2102C60.8586 31.3742 60.8784 30.6332 60.898 30.1772C60.9175 29.7403 60.9561 29.2273 60.9945 28.8854L59.3415 28.8834C59.4172 29.2065 59.4544 29.8335 59.4539 30.2135C59.4535 30.5555 59.4336 31.3725 59.4134 32.3605C58.9003 32.3978 58.4063 32.4163 57.9693 32.4157C57.2853 32.4149 56.6013 32.3951 55.5755 32.2609L55.6117 33.7049C56.3337 33.7818 57.1506 33.8017 58.0056 33.8028C58.4046 33.8033 58.8797 33.7848 59.3927 33.7474C59.3727 34.5834 59.3716 35.4574 59.3707 36.2174L59.3694 37.2814C57.2023 38.2098 55.2434 39.8415 55.2415 41.3805C55.2395 43.0715 57.6888 44.4994 59.1708 44.5012C60.1778 44.5024 60.8434 43.9522 60.8455 42.2042C60.8465 41.3872 60.8105 39.7342 60.7744 38.1381C62.124 37.6647 63.4543 37.4003 64.8603 37.402C66.6463 37.4042 68.0893 38.2609 68.0874 39.8569C68.0853 41.6049 66.5832 42.4961 64.9298 42.7981C64.2076 42.9492 63.4287 42.9293 62.7257 42.9285L63.2559 44.4301C63.9019 44.4119 64.7379 44.3749 65.5741 44.1859C68.1589 43.562 69.5856 42.1197 69.5884 39.8397C69.5911 37.5977 67.6169 36.0943 64.8809 36.091C63.6459 36.0896 62.1826 36.3158 60.7571 36.7701L60.7578 36.1431ZM66.1777 32.1216C67.3739 32.769 69.4623 34.0446 70.3923 34.9387L71.1537 33.7236C70.2426 32.9625 68.1922 31.668 66.8631 30.9634L66.1777 32.1216ZM59.7519 51.0549C59.7504 52.3279 59.5396 53.7906 59.272 55.1393C58.1319 55.2329 57.0297 55.3266 56.4027 55.3449C55.8137 55.3632 55.3197 55.3816 54.7307 55.3429L54.8807 56.996C55.3748 56.9206 56.1349 56.8265 56.572 56.7701C57.0661 56.7137 57.9782 56.6198 58.9473 56.5259C58.3173 59.0332 56.9062 63.2875 54.9841 65.8502L56.5413 66.479C58.5402 63.2894 59.8182 59.073 60.5055 56.3758C61.3226 56.3008 62.0636 56.2447 62.5196 56.2452C63.7166 56.2467 64.4953 56.5516 64.4932 58.2616C64.4908 60.3136 64.2028 62.7452 63.6123 64.0175C63.2123 64.8341 62.6611 64.9854 61.9581 64.9845C61.4451 64.9839 60.4383 64.8117 59.6596 64.5638L59.9047 66.1601C60.4936 66.2938 61.4054 66.4469 62.1084 66.4477C63.3434 66.4492 64.2748 66.1273 64.8653 64.874C65.6462 63.298 65.9727 60.3344 65.9754 58.0924C65.9785 55.5464 64.5923 54.8987 62.9203 54.8967C62.4643 54.8962 61.6852 54.9522 60.8111 55.0082C61.0213 54.0014 61.1937 52.8996 61.2893 52.3487C61.3658 51.9878 61.4422 51.5889 61.5187 51.247L59.7519 51.0549ZM66.5885 53.8561C67.9166 55.4347 69.3946 58.7425 69.9433 60.6811L71.4262 59.9799C70.7823 58.2312 69.1714 54.7712 67.9953 53.2498L66.5885 53.8561ZM59.1186 72.0731L58.8699 73.4598C61.1684 73.8806 64.4549 74.3026 66.3357 74.4758L66.5464 73.0701C64.7606 72.9539 61.1701 72.5126 59.1186 72.0731ZM66.9211 77.4595L66.0104 76.4324C65.8393 76.5082 65.4402 76.6027 65.1171 76.6404C63.6919 76.8096 59.3216 77.1084 58.2385 77.1261C57.6495 77.1444 57.0795 77.1247 56.6426 77.0862L56.7736 78.7583C57.1916 78.7018 57.6857 78.6264 58.2938 78.5892C59.4529 78.4955 62.6072 78.2143 64.0893 78.1211C62.2251 79.9809 57.0889 85.1047 56.3281 85.8448C55.9856 86.2054 55.6433 86.509 55.396 86.6987L56.8578 87.6884C57.9235 86.3407 59.959 84.2152 60.6628 83.532C61.1003 83.1145 61.5377 82.8491 62.0507 82.8497C62.5637 82.8503 62.9622 83.1928 63.1895 83.839C63.3598 84.3902 63.6435 85.4926 63.8138 86.0438C64.2303 87.2983 65.1799 87.6414 66.6809 87.6432C67.6879 87.6445 69.4171 87.5135 70.2152 87.3815L70.3122 85.7666C69.4379 85.9936 67.9937 86.1628 66.7587 86.1613C65.7897 86.1602 65.353 85.8556 65.1449 85.1524C64.9366 84.5441 64.6908 83.5938 64.5204 83.0426C64.2554 82.2633 63.819 81.7688 63.078 81.6919C62.9071 81.6347 62.5651 81.6153 62.3751 81.6341C63.079 80.8939 65.1713 78.9584 65.8941 78.3133C66.1034 78.1045 66.5788 77.7061 66.9211 77.4595ZM57.9332 94.0147C57.9137 94.4707 57.856 95.0406 57.7793 95.6295C57.5495 97.1493 57.2041 99.9229 57.202 101.709C57.2005 102.925 57.2942 103.989 57.3884 104.692L58.8705 104.58C58.7386 103.649 58.7394 103.003 58.8353 102.281C59.0663 99.8111 61.2363 96.4127 63.5733 96.4155C65.5683 96.4179 66.5538 98.5471 66.5502 101.511C66.5445 106.242 63.3506 107.872 59.2648 108.494L60.1562 109.863C64.8312 109.014 68.121 106.719 68.1272 101.494C68.132 97.542 66.33 95.0318 63.822 95.0288C61.447 95.026 59.4682 97.3606 58.7249 99.2977C58.8405 97.9868 59.2045 95.4603 59.6052 94.0737L57.9332 94.0147ZM70.7257 121.065C69.8335 120.38 67.688 119.161 66.3207 118.552L65.5783 119.729C66.8316 120.3 68.8632 121.462 69.8692 122.318L70.7257 121.065ZM63.8891 118.207C62.9388 118.51 61.9505 118.737 60.9623 118.887C61.2676 117.805 61.516 116.665 61.7068 115.981L60.016 115.827C59.9768 116.834 59.7094 118.031 59.4231 119.076C58.701 119.132 57.998 119.169 57.333 119.168C56.516 119.167 55.718 119.128 55.0151 119.032L55.1274 120.457C55.8304 120.496 56.6094 120.516 57.3124 120.517C57.8634 120.518 58.4144 120.499 58.9654 120.462C58.1078 122.665 56.5082 125.665 54.929 127.487L56.4101 128.249C57.9135 126.218 59.5894 122.952 60.5236 120.293C61.7588 120.142 62.9371 119.897 63.9255 119.613L63.8891 118.207ZM64.8645 128.715C64.8634 129.646 64.3494 130.5 62.8104 130.499C61.3474 130.497 60.6451 129.907 60.6461 129.033C60.6472 128.178 61.5599 127.552 62.9469 127.554C63.6119 127.555 64.2578 127.65 64.8466 127.822C64.8652 128.164 64.8648 128.468 64.8645 128.715ZM64.6068 121.799C64.6432 123.11 64.736 124.953 64.7912 126.492C64.2403 126.377 63.6324 126.32 63.0054 126.319C60.8774 126.316 59.242 127.435 59.24 129.164C59.2377 131.026 60.9277 131.883 62.9987 131.886C65.3167 131.889 66.3062 130.655 66.308 129.154C66.3082 128.945 66.3086 128.679 66.2899 128.394C67.5052 128.984 68.5112 129.821 69.3083 130.544L70.1269 129.253C69.1589 128.416 67.849 127.484 66.2347 126.893C66.1981 125.753 66.1236 124.518 66.1054 123.834C66.0872 123.131 66.0689 122.58 66.1268 121.801L64.6068 121.799ZM56.95 169.077C56.6447 170.102 56.4345 171.147 56.4335 171.964C56.4307 174.32 58.367 175.728 61.863 175.733C64.352 175.736 65.6252 175.509 66.8035 175.301L66.8244 173.724C65.494 174.008 64.3728 174.235 61.8838 174.232C59.0718 174.228 57.952 173.239 57.954 171.586C57.9546 171.016 58.1839 169.933 58.4888 169.211L56.95 169.077ZM68.8334 162.08C67.5409 162.496 66.2675 162.799 64.9753 163.025C64.5585 162.018 64.2175 161.181 63.763 159.927L62.0716 160.248C62.375 160.761 62.5455 161.122 62.8677 161.826L63.493 163.213C61.3268 163.439 58.7617 163.455 56.0262 163.09L56.0813 164.611C58.95 164.861 61.648 164.864 64.0804 164.582C64.6488 165.894 65.5964 167.852 66.1271 169.012C65.5001 168.954 64.1893 168.8 63.4674 168.742L63.3139 169.977C64.5298 170.093 66.3914 170.361 67.2082 170.533L68.0833 169.622C67.2682 168.044 66.2448 165.858 65.5627 164.356C66.7219 164.167 67.9572 163.884 69.1166 163.581L68.8334 162.08ZM57.3123 183.781L55.4883 183.741C55.5828 184.197 55.6009 184.976 55.6003 185.413C55.599 186.515 55.6153 188.795 55.8033 190.429C56.3104 195.313 58.0183 197.082 59.7853 197.084C61.0773 197.086 62.2376 196.004 63.3624 192.813L62.1671 191.444C61.6708 193.343 60.7945 195.28 59.8255 195.279C58.4955 195.277 57.586 193.205 57.2857 190.051C57.1546 188.512 57.1377 186.783 57.1581 185.605C57.1777 185.111 57.2357 184.237 57.3123 183.781ZM67.1157 184.306L65.633 184.817C67.4164 187.023 68.5519 190.749 68.8709 194.131L70.4106 193.525C70.1484 190.351 68.804 186.493 67.1157 184.306Z" fill="url(#paint3_linear)" style="mix-blend-mode:darken"/>
<path d="M59.3868 38.6874L60.3867 38.6748L60.3669 37.1169L58.9588 37.7836L59.3868 38.6874ZM60.7989 33.5971L60.6896 32.6031L59.8188 32.6988L59.7991 33.5747L60.7989 33.5971ZM64.7137 32.9558L64.9312 33.9319L65.7229 33.7554L65.7136 32.9444L64.7137 32.9558ZM64.6965 31.4548L65.6964 31.4434L65.6811 30.1125L64.4071 30.4976L64.6965 31.4548ZM60.8385 32.2102L59.8388 32.1863L59.8111 33.345L60.9614 33.2026L60.8385 32.2102ZM60.898 30.1772L59.899 30.1326L59.8989 30.1344L60.898 30.1772ZM60.9945 28.8854L61.9883 28.997L62.113 27.8867L60.9957 27.8854L60.9945 28.8854ZM59.3415 28.8834L59.3427 27.8834L58.0801 27.8819L58.3679 29.1112L59.3415 28.8834ZM59.4134 32.3605L59.486 33.3578L60.3945 33.2916L60.4132 32.3809L59.4134 32.3605ZM55.5755 32.2609L55.7052 31.2693L54.5465 31.1177L54.5758 32.286L55.5755 32.2609ZM55.6117 33.7049L54.6121 33.73L54.6341 34.6064L55.5059 34.6993L55.6117 33.7049ZM59.3927 33.7474L60.3924 33.7714L60.4188 32.67L59.32 32.7501L59.3927 33.7474ZM59.3694 37.2814L59.7632 38.2006L60.3687 37.9413L60.3694 37.2826L59.3694 37.2814ZM60.7744 38.1381L60.4434 37.1945L59.7583 37.4348L59.7747 38.1607L60.7744 38.1381ZM64.9298 42.7981L64.7501 41.8144L64.7375 41.8167L64.725 41.8193L64.9298 42.7981ZM62.7257 42.9285L62.7269 41.9285L61.3115 41.9268L61.7827 43.2614L62.7257 42.9285ZM63.2559 44.4301L62.3129 44.763L62.5555 45.4502L63.2841 45.4297L63.2559 44.4301ZM65.5741 44.1859L65.7946 45.1613L65.8017 45.1597L65.8088 45.158L65.5741 44.1859ZM60.7571 36.7701L59.7571 36.7689L59.7554 38.1388L61.0607 37.7229L60.7571 36.7701ZM66.1777 32.1216L65.3171 31.6123L64.7879 32.5065L65.7017 33.001L66.1777 32.1216ZM70.3923 34.9387L69.6992 35.6595L70.5862 36.5124L71.2396 35.4697L70.3923 34.9387ZM71.1537 33.7236L72.0011 34.2546L72.4643 33.5154L71.7948 32.9561L71.1537 33.7236ZM66.8631 30.9634L67.3314 30.0799L66.4884 29.633L66.0025 30.4541L66.8631 30.9634ZM58.7749 41.9237C58.7416 41.9237 58.642 41.9118 58.4897 41.8556C58.3447 41.8021 58.1913 41.7228 58.0559 41.6273C57.9179 41.5301 57.8257 41.4354 57.7754 41.3634C57.7257 41.2922 57.7426 41.2821 57.7426 41.3265L55.7426 41.3241C55.7415 42.249 56.4036 42.9097 56.9038 43.2622C57.4311 43.6337 58.1366 43.9229 58.7725 43.9237L58.7749 41.9237ZM57.7426 41.3265C57.7426 41.33 57.7429 41.271 57.8153 41.1414C57.8866 41.0139 58.0088 40.8526 58.1956 40.6691C58.5702 40.3011 59.1319 39.9146 59.8147 39.5912L58.9588 37.7836C58.1207 38.1805 57.3609 38.6854 56.7939 39.2425C56.2624 39.7646 55.7436 40.489 55.7426 41.3241L57.7426 41.3265ZM58.3868 38.7001C58.4046 40.0999 58.4406 41.3322 58.4398 42.0113L60.4398 42.0137C60.4406 41.3248 60.4036 40.0111 60.3867 38.6748L58.3868 38.7001ZM58.4398 42.0113C58.4397 42.0967 58.4311 42.1435 58.4268 42.1603C58.4227 42.1768 58.4268 42.149 58.4607 42.1023C58.4981 42.0507 58.5568 41.9973 58.6328 41.9612C58.7053 41.9267 58.7602 41.9237 58.7749 41.9237L58.7725 43.9237C59.2695 43.9243 59.7563 43.7226 60.08 43.2761C60.3657 42.8819 60.4393 42.4123 60.4398 42.0137L58.4398 42.0113ZM61.7578 36.1443C61.7587 35.3971 61.7785 34.5156 61.7986 33.6196L59.7991 33.5747C59.7791 34.4646 59.7587 35.3691 59.7578 36.1419L61.7578 36.1443ZM60.9081 34.5911C62.3121 34.4369 63.7926 34.1857 64.9312 33.9319L64.4961 31.9798C63.4301 32.2174 62.022 32.4567 60.6896 32.6031L60.9081 34.5911ZM65.7136 32.9444L65.6964 31.4434L63.6965 31.4663L63.7137 32.9673L65.7136 32.9444ZM64.4071 30.4976C63.4174 30.7967 62.0534 31.0522 60.7157 31.2178L60.9614 33.2026C62.3601 33.0295 63.8467 32.7563 64.9858 32.412L64.4071 30.4976ZM61.8383 32.2341C61.8583 31.3964 61.878 30.665 61.8971 30.2201L59.8989 30.1344C59.8789 30.6015 59.8588 31.352 59.8388 32.1863L61.8383 32.2341ZM61.897 30.2219C61.9157 29.8024 61.9529 29.3123 61.9883 28.997L60.0008 28.7737C59.9594 29.1424 59.9193 29.6782 59.899 30.1326L61.897 30.2219ZM60.9957 27.8854L59.3427 27.8834L59.3403 29.8834L60.9933 29.8854L60.9957 27.8854ZM58.3679 29.1112C58.4162 29.3177 58.4544 29.85 58.4539 30.2123L60.4539 30.2147C60.4544 29.817 60.4181 29.0952 60.3152 28.6555L58.3679 29.1112ZM58.4539 30.2123C58.4536 30.5415 58.434 31.3392 58.4136 32.34L60.4132 32.3809C60.4331 31.4057 60.4535 30.5695 60.4539 30.2147L58.4539 30.2123ZM59.3407 31.3631C58.8492 31.3989 58.38 31.4162 57.9705 31.4157L57.9681 33.4157C58.4326 33.4163 58.9515 33.3968 59.486 33.3578L59.3407 31.3631ZM57.9705 31.4157C57.3167 31.4149 56.6774 31.3965 55.7052 31.2693L55.4457 33.2524C56.5252 33.3937 57.2539 33.4149 57.9681 33.4157L57.9705 31.4157ZM54.5758 32.286L54.6121 33.73L56.6114 33.6798L56.5752 32.2357L54.5758 32.286ZM55.5059 34.6993C56.2814 34.7819 57.1407 34.8017 58.0044 34.8028L58.0068 32.8028C57.1605 32.8018 56.3859 32.7817 55.7176 32.7105L55.5059 34.6993ZM58.0044 34.8028C58.4329 34.8033 58.9331 34.7836 59.4654 34.7448L59.32 32.7501C58.8262 32.7861 58.3763 32.8032 58.0068 32.8028L58.0044 34.8028ZM58.393 33.7235C58.3727 34.5727 58.3716 35.4581 58.3707 36.2162L60.3707 36.2186C60.3716 35.4567 60.3727 34.5941 60.3924 33.7714L58.393 33.7235ZM58.3707 36.2162L58.3694 37.2802L60.3694 37.2826L60.3707 36.2186L58.3707 36.2162ZM58.9757 36.3622C57.808 36.8624 56.671 37.5614 55.808 38.3739C54.9745 39.1586 54.2429 40.198 54.2415 41.3793L56.2415 41.3817C56.2419 41.0239 56.4908 40.478 57.179 39.8301C57.8377 39.2099 58.7638 38.6288 59.7632 38.2006L58.9757 36.3622ZM54.2415 41.3793C54.2399 42.709 55.1739 43.7501 56.069 44.3885C56.9858 45.0422 58.1671 45.5 59.1696 45.5012L59.172 43.5012C58.6924 43.5006 57.9081 43.2435 57.2302 42.7601C56.5307 42.2613 56.2411 41.743 56.2415 41.3817L54.2415 41.3793ZM59.1696 45.5012C59.8575 45.502 60.612 45.3072 61.1575 44.6437C61.6653 44.0259 61.8444 43.1731 61.8455 42.2054L59.8455 42.203C59.8446 42.9833 59.6898 43.2796 59.6125 43.3736C59.5729 43.4218 59.4911 43.5016 59.172 43.5012L59.1696 45.5012ZM61.8455 42.2054C61.8465 41.3734 61.8101 39.7052 61.7742 38.1155L59.7747 38.1607C59.8109 39.7631 59.8465 41.401 59.8455 42.203L61.8455 42.2054ZM61.1054 39.0817C62.3676 38.639 63.5851 38.4005 64.8591 38.402L64.8615 36.402C63.3235 36.4002 61.8803 36.6905 60.4434 37.1945L61.1054 39.0817ZM64.8591 38.402C65.6084 38.4029 66.1959 38.5852 66.5659 38.8475C66.9028 39.0864 67.0879 39.4037 67.0874 39.8557L69.0874 39.8581C69.0887 38.7141 68.5533 37.805 67.7227 37.216C66.9252 36.6505 65.8982 36.4033 64.8615 36.402L64.8591 38.402ZM67.0874 39.8557C67.0867 40.4 66.8695 40.7874 66.4926 41.0974C66.0851 41.4326 65.4754 41.6819 64.7501 41.8144L65.1095 43.7818C66.0376 43.6123 67.0057 43.265 67.763 42.6421C68.551 41.994 69.0859 41.0618 69.0874 39.8581L67.0874 39.8557ZM64.725 41.8193C64.1294 41.9439 63.4761 41.9294 62.7269 41.9285L62.7245 43.9285C63.3812 43.9292 64.2858 43.9545 65.1347 43.7769L64.725 41.8193ZM61.7827 43.2614L62.3129 44.763L64.1988 44.0972L63.6686 42.5955L61.7827 43.2614ZM63.2841 45.4297C63.9371 45.4113 64.8566 45.3733 65.7946 45.1613L65.3537 43.2105C64.6192 43.3765 63.8667 43.4125 63.2277 43.4305L63.2841 45.4297ZM65.8088 45.158C67.2216 44.817 68.4235 44.228 69.2782 43.3187C70.1507 42.3905 70.5867 41.2068 70.5884 39.8409L68.5884 39.8385C68.5873 40.7526 68.3086 41.4301 67.8209 41.9489C67.3153 42.4868 66.5115 42.9309 65.3395 43.2138L65.8088 45.158ZM70.5884 39.8409C70.5901 38.397 69.9437 37.1761 68.8796 36.3397C67.8333 35.5172 66.4244 35.0929 64.8821 35.091L64.8797 37.091C66.0733 37.0925 67.0196 37.4215 67.6437 37.9121C68.25 38.3887 68.5893 39.0405 68.5884 39.8385L70.5884 39.8409ZM64.8821 35.091C63.5344 35.0894 61.9684 35.3345 60.4534 35.8173L61.0607 37.7229C62.3969 37.2971 63.7573 37.0897 64.8797 37.091L64.8821 35.091ZM61.7571 36.7713L61.7578 36.1443L59.7578 36.1419L59.7571 36.7689L61.7571 36.7713ZM65.7017 33.001C66.897 33.648 68.8767 34.8687 69.6992 35.6595L71.0854 34.2178C70.048 33.2204 67.8507 31.8901 66.6536 31.2421L65.7017 33.001ZM71.2396 35.4697L72.0011 34.2546L70.3064 33.1926L69.5449 34.4077L71.2396 35.4697ZM71.7948 32.9561C70.8095 32.133 68.6921 30.8012 67.3314 30.0799L66.3947 31.847C67.6923 32.5348 69.6758 33.792 70.5126 34.491L71.7948 32.9561ZM66.0025 30.4541L65.3171 31.6123L67.0383 32.6309L67.7236 31.4727L66.0025 30.4541ZM59.7519 51.0549L59.86 50.0607L58.7532 49.9404L58.7519 51.0537L59.7519 51.0549ZM59.272 55.1393L59.3538 56.136L60.106 56.0742L60.2528 55.3339L59.272 55.1393ZM56.4027 55.3449L56.3736 54.3453L56.3717 54.3453L56.4027 55.3449ZM54.7307 55.3429L54.7963 54.345L53.6291 54.2683L53.7348 55.4332L54.7307 55.3429ZM54.8807 56.996L53.8848 57.0864L53.9809 58.1449L55.0316 57.9846L54.8807 56.996ZM56.572 56.7701L56.4586 55.7765L56.4512 55.7774L56.4439 55.7783L56.572 56.7701ZM58.9473 56.5259L59.9172 56.7696L60.2629 55.3939L58.8509 55.5306L58.9473 56.5259ZM54.9841 65.8502L54.1841 65.2502L53.4038 66.2905L54.6096 66.7774L54.9841 65.8502ZM56.5413 66.479L56.1669 67.4063L56.9438 67.72L57.3887 67.0101L56.5413 66.479ZM60.5055 56.3758L60.4141 55.38L59.7108 55.4445L59.5365 56.1289L60.5055 56.3758ZM63.6123 64.0175L64.5103 64.4575L64.5149 64.448L64.5194 64.4385L63.6123 64.0175ZM59.6596 64.5638L59.963 63.6109L58.4265 63.1217L58.6712 64.7155L59.6596 64.5638ZM59.9047 66.1601L58.9163 66.3118L59.0196 66.9845L59.6833 67.1353L59.9047 66.1601ZM64.8653 64.874L63.9692 64.4301L63.9649 64.4389L63.9607 64.4478L64.8653 64.874ZM60.8111 55.0082L59.8322 54.8038L59.5637 56.0901L60.875 56.0061L60.8111 55.0082ZM61.2893 52.3487L60.311 52.1415L60.3072 52.1595L60.3041 52.1776L61.2893 52.3487ZM61.5187 51.247L62.4946 51.4651L62.7385 50.3738L61.6268 50.2529L61.5187 51.247ZM66.5885 53.8561L66.1927 52.9378L64.9571 53.4703L65.8233 54.4999L66.5885 53.8561ZM69.9433 60.6811L68.9811 60.9535L69.3028 62.0902L70.3708 61.5852L69.9433 60.6811ZM71.4262 59.9799L71.8537 60.8839L72.6807 60.4929L72.3646 59.6344L71.4262 59.9799ZM67.9953 53.2498L68.7864 52.6382L68.3119 52.0244L67.5994 52.3315L67.9953 53.2498ZM58.7519 51.0537C58.7505 52.2322 58.5535 53.6221 58.2911 54.9447L60.2528 55.3339C60.5257 53.9592 60.7502 52.4236 60.7519 51.0561L58.7519 51.0537ZM59.1901 54.1427C58.0317 54.2378 56.9666 54.328 56.3736 54.3453L56.4318 56.3444C57.0929 56.3252 58.2321 56.2281 59.3538 56.136L59.1901 54.1427ZM56.3717 54.3453C55.7732 54.3639 55.3285 54.38 54.7963 54.345L54.6651 56.3407C55.3109 56.3831 55.8542 56.3624 56.4338 56.3444L56.3717 54.3453ZM53.7348 55.4332L53.8848 57.0864L55.8766 56.9057L55.7266 55.2525L53.7348 55.4332ZM55.0316 57.9846C55.5107 57.9115 56.2513 57.8198 56.7002 57.7618L56.4439 55.7783C56.0186 55.8333 55.239 55.9298 54.7299 56.0075L55.0316 57.9846ZM56.6854 57.7636C57.1709 57.7082 58.0762 57.6149 59.0437 57.5213L58.8509 55.5306C57.8802 55.6246 56.9613 55.7191 56.4586 55.7765L56.6854 57.7636ZM57.9775 56.2822C57.3535 58.7653 55.9804 62.8552 54.1841 65.2502L55.7841 66.4502C57.832 63.7198 59.2811 59.301 59.9172 56.7696L57.9775 56.2822ZM54.6096 66.7774L56.1669 67.4063L56.9158 65.5518L55.3585 64.9229L54.6096 66.7774ZM57.3887 67.0101C59.4744 63.6818 60.7827 59.338 61.4745 56.6227L59.5365 56.1289C58.8538 58.8079 57.6059 62.8971 55.694 65.948L57.3887 67.0101ZM60.5969 57.3716C61.4203 57.296 62.1161 57.2447 62.5184 57.2452L62.5208 55.2452C62.0112 55.2446 61.2248 55.3055 60.4141 55.38L60.5969 57.3716ZM62.5184 57.2452C63.0884 57.2459 63.2593 57.3332 63.3114 57.3771C63.3235 57.3874 63.4941 57.5254 63.4932 58.2604L65.4932 58.2628C65.4944 57.2878 65.2767 56.4183 64.6008 55.8483C63.9648 55.3118 63.1479 55.246 62.5208 55.2452L62.5184 57.2452ZM63.4932 58.2604C63.492 59.2442 63.4222 60.318 63.2833 61.2906C63.1418 62.2821 62.9387 63.0935 62.7052 63.5965L64.5194 64.4385C64.8764 63.6693 65.1126 62.6287 65.2632 61.5733C65.4166 60.499 65.4919 59.331 65.4932 58.2628L63.4932 58.2604ZM62.7143 63.5776C62.5879 63.8356 62.4883 63.8945 62.4466 63.9157C62.3797 63.9496 62.2537 63.9849 61.9593 63.9846L61.9569 65.9845C62.3656 65.985 62.8666 65.9451 63.3511 65.6994C63.8607 65.441 64.2367 65.016 64.5103 64.4575L62.7143 63.5776ZM61.9593 63.9846C61.5774 63.9841 60.6755 63.8378 59.963 63.6109L59.3563 65.5167C60.2012 65.7857 61.3129 65.9838 61.9569 65.9845L61.9593 63.9846ZM58.6712 64.7155L58.9163 66.3118L60.8931 66.0083L60.6481 64.412L58.6712 64.7155ZM59.6833 67.1353C60.3027 67.2759 61.2969 67.4468 62.1072 67.4477L62.1096 65.4477C61.5138 65.447 60.6844 65.3117 60.1262 65.1849L59.6833 67.1353ZM62.1072 67.4477C62.7994 67.4486 63.5229 67.3614 64.1856 67.0208C64.873 66.6676 65.3962 66.0934 65.7699 65.3003L63.9607 64.4478C63.7438 64.908 63.5061 65.1214 63.2714 65.242C63.012 65.3753 62.6523 65.4484 62.1096 65.4477L62.1072 67.4477ZM65.7613 65.318C66.2219 64.3884 66.517 63.1299 66.7015 61.8788C66.8889 60.6076 66.974 59.2575 66.9754 58.0936L64.9754 58.0912C64.9741 59.1692 64.8946 60.4219 64.7229 61.5871C64.5481 62.7723 64.2895 63.7836 63.9692 64.4301L65.7613 65.318ZM66.9754 58.0936C66.9772 56.6441 66.5791 55.5188 65.7304 54.7844C64.9105 54.0749 63.8578 53.8978 62.9215 53.8967L62.9191 55.8967C63.6548 55.8976 64.1311 56.0453 64.4216 56.2967C64.6832 56.5231 64.9767 56.9946 64.9754 58.0912L66.9754 58.0936ZM62.9215 53.8967C62.4228 53.8961 61.5932 53.9561 60.7473 54.0102L60.875 56.0061C61.7772 55.9484 62.5058 55.8962 62.9191 55.8967L62.9215 53.8967ZM61.79 55.2126C62.0048 54.1837 62.1831 53.0466 62.2746 52.5198L60.3041 52.1776C60.2042 52.7526 60.0378 53.8191 59.8322 54.8038L61.79 55.2126ZM62.2676 52.5559C62.3513 52.1609 62.4183 51.8066 62.4946 51.4651L60.5427 51.0289C60.4662 51.3712 60.3802 51.8148 60.311 52.1415L62.2676 52.5559ZM61.6268 50.2529L59.86 50.0607L59.6438 52.049L61.4105 52.2412L61.6268 50.2529ZM65.8233 54.4999C66.4057 55.1921 67.064 56.3236 67.6556 57.5641C68.2421 58.7937 68.7258 60.0515 68.9811 60.9535L70.9055 60.4088C70.6121 59.3721 70.0826 58.0067 69.4608 56.7031C68.8442 55.4104 68.0995 54.0987 67.3537 53.2123L65.8233 54.4999ZM70.3708 61.5852L71.8537 60.8839L70.9987 59.0759L69.5158 59.7771L70.3708 61.5852ZM72.3646 59.6344C72.0276 58.7192 71.4486 57.3837 70.8066 56.0861C70.1717 54.8029 69.4388 53.4821 68.7864 52.6382L67.2041 53.8614C67.7278 54.5389 68.3885 55.7088 69.014 56.9731C69.6324 58.223 70.1808 59.4919 70.4878 60.3255L72.3646 59.6344ZM67.5994 52.3315L66.1927 52.9378L66.9843 54.7744L68.3911 54.1681L67.5994 52.3315ZM59.1186 72.0731L59.3281 71.0953L58.3169 70.8787L58.1343 71.8966L59.1186 72.0731ZM58.8699 73.4598L57.8856 73.2833L57.7098 74.2641L58.6899 74.4435L58.8699 73.4598ZM66.3357 74.4758L66.244 75.4716L67.1847 75.5583L67.3247 74.624L66.3357 74.4758ZM66.5464 73.0701L67.5354 73.2183L67.6966 72.1428L66.6113 72.0722L66.5464 73.0701ZM66.9211 77.4595L67.5057 78.2709L68.4036 77.6241L67.6693 76.7961L66.9211 77.4595ZM66.0104 76.4324L66.7586 75.769L66.2736 75.2221L65.6053 75.5181L66.0104 76.4324ZM65.1171 76.6404L65.0015 75.6471L64.9992 75.6473L65.1171 76.6404ZM58.2385 77.1261L58.2222 76.1262L58.2148 76.1263L58.2075 76.1266L58.2385 77.1261ZM56.6426 77.0862L56.7304 76.09L55.5534 75.9863L55.6456 77.1643L56.6426 77.0862ZM56.7736 78.7583L55.7766 78.8364L55.8592 79.891L56.9075 79.7493L56.7736 78.7583ZM58.2938 78.5892L58.355 79.5873L58.3646 79.5867L58.3743 79.5859L58.2938 78.5892ZM64.0893 78.1211L64.7956 78.8291L66.6725 76.9567L64.0266 77.1231L64.0893 78.1211ZM56.3281 85.8448L55.6308 85.128L55.6166 85.1418L55.6029 85.1562L56.3281 85.8448ZM55.396 86.6987L54.7873 85.9053L53.6873 86.7494L54.8354 87.5267L55.396 86.6987ZM56.8578 87.6884L56.2972 88.5165L57.0662 89.0372L57.6423 88.3087L56.8578 87.6884ZM60.6628 83.532L59.9725 82.8085L59.9663 82.8144L60.6628 83.532ZM63.1895 83.839L64.1449 83.5438L64.1392 83.5255L64.1329 83.5074L63.1895 83.839ZM63.8138 86.0438L62.8584 86.339L62.8615 86.349L62.8648 86.3589L63.8138 86.0438ZM70.2152 87.3815L70.3784 88.3681L71.1656 88.2379L71.2134 87.4414L70.2152 87.3815ZM70.3122 85.7666L71.3104 85.8265L71.3928 84.4529L70.0609 84.7987L70.3122 85.7666ZM65.1449 85.1524L66.1038 84.8686L66.0978 84.8484L66.091 84.8285L65.1449 85.1524ZM64.5204 83.0426L65.4758 82.7474L65.4717 82.734L65.4672 82.7206L64.5204 83.0426ZM63.078 81.6919L62.7607 82.6402L62.8652 82.6752L62.9748 82.6866L63.078 81.6919ZM62.3751 81.6341L61.6505 80.9449L59.7973 82.8936L62.4734 82.6292L62.3751 81.6341ZM65.8941 78.3133L66.56 79.0593L66.5807 79.0409L66.6004 79.0213L65.8941 78.3133ZM58.1343 71.8966L57.8856 73.2833L59.8542 73.6363L60.1029 72.2496L58.1343 71.8966ZM58.6899 74.4435C61.0221 74.8704 64.3384 75.2961 66.244 75.4716L66.4275 73.48C64.5714 73.3091 61.3148 72.8908 59.05 72.4762L58.6899 74.4435ZM67.3247 74.624L67.5354 73.2183L65.5575 72.9218L65.3468 74.3276L67.3247 74.624ZM66.6113 72.0722C64.8625 71.9584 61.3218 71.5224 59.3281 71.0953L58.9091 73.051C61.0184 73.5028 64.6586 73.9494 66.4815 74.068L66.6113 72.0722ZM67.6693 76.7961L66.7586 75.769L65.2622 77.0959L66.1729 78.123L67.6693 76.7961ZM65.6053 75.5181C65.6155 75.5136 65.602 75.5201 65.5547 75.5344C65.5122 75.5472 65.4571 75.562 65.3929 75.577C65.2622 75.6076 65.1195 75.6333 65.0015 75.6471L65.2328 77.6336C65.6008 77.5908 66.1127 77.4808 66.4154 77.3467L65.6053 75.5181ZM64.9992 75.6473C63.6045 75.813 59.2682 76.1091 58.2222 76.1262L58.2549 78.126C59.3749 78.1076 63.7793 77.8063 65.2351 77.6334L64.9992 75.6473ZM58.2075 76.1266C57.6569 76.1437 57.1266 76.125 56.7304 76.09L56.5548 78.0823C57.0325 78.1244 57.6422 78.1451 58.2696 78.1256L58.2075 76.1266ZM55.6456 77.1643L55.7766 78.8364L57.7705 78.6802L57.6395 77.0081L55.6456 77.1643ZM56.9075 79.7493C57.3415 79.6907 57.7923 79.6218 58.355 79.5873L58.2326 77.591C57.5792 77.6311 57.0418 77.713 56.6397 77.7673L56.9075 79.7493ZM58.3743 79.5859C59.5536 79.4907 62.6812 79.2117 64.1521 79.1191L64.0266 77.1231C62.5333 77.217 59.3521 77.5004 58.2133 77.5924L58.3743 79.5859ZM63.3831 77.4132C61.5142 79.2775 56.3857 84.3937 55.6308 85.128L57.0253 86.5616C57.7922 85.8157 62.936 80.6842 64.7956 78.8291L63.3831 77.4132ZM55.6029 85.1562C55.2922 85.4834 54.9884 85.751 54.7873 85.9053L56.0048 87.492C56.2981 87.267 56.679 86.9274 57.0532 86.5334L55.6029 85.1562ZM54.8354 87.5267L56.2972 88.5165L57.4185 86.8604L55.9567 85.8706L54.8354 87.5267ZM57.6423 88.3087C58.6701 87.0087 60.6717 84.917 61.3593 84.2496L59.9663 82.8144C59.2464 83.5133 57.1768 85.6728 56.0734 87.0682L57.6423 88.3087ZM61.3532 84.2555C61.7193 83.9062 61.918 83.8495 62.0495 83.8497L62.0519 81.8497C61.1573 81.8486 60.4814 82.3229 59.9725 82.8085L61.3532 84.2555ZM62.0495 83.8497C62.0648 83.8497 62.0671 83.8519 62.0627 83.8503C62.0584 83.8486 62.0613 83.8484 62.0725 83.8581C62.098 83.8802 62.1725 83.9613 62.2461 84.1707L64.1329 83.5074C63.821 82.6204 63.1361 81.851 62.0519 81.8497L62.0495 83.8497ZM62.234 84.1343C62.3134 84.391 62.422 84.786 62.5373 85.2062C62.649 85.6128 62.7674 86.0446 62.8584 86.339L64.7692 85.7485C64.6899 85.4918 64.5813 85.0969 64.466 84.6767C64.3543 84.2701 64.2359 83.8383 64.1449 83.5438L62.234 84.1343ZM62.8648 86.3589C63.1449 87.2028 63.6461 87.8274 64.3871 88.2045C65.0754 88.5549 65.8782 88.6423 66.6797 88.6432L66.6821 86.6432C65.9826 86.6424 65.5601 86.5574 65.2943 86.4221C65.081 86.3135 64.8992 86.1393 64.7629 85.7287L62.8648 86.3589ZM66.6797 88.6432C67.7321 88.6445 69.5172 88.5106 70.3784 88.3681L70.052 86.3949C69.3169 86.5165 67.6436 86.6444 66.6821 86.6432L66.6797 88.6432ZM71.2134 87.4414L71.3104 85.8265L69.314 85.7067L69.217 87.3216L71.2134 87.4414ZM70.0609 84.7987C69.2863 84.9998 67.9296 85.1627 66.7599 85.1613L66.7575 87.1613C68.0578 87.1629 69.5895 86.9874 70.5634 86.7345L70.0609 84.7987ZM66.7599 85.1613C66.3593 85.1609 66.2305 85.0939 66.2059 85.0781C66.1988 85.0735 66.1919 85.0687 66.1795 85.0502C66.1638 85.0267 66.1349 84.9739 66.1038 84.8686L64.186 85.4362C64.3347 85.9387 64.608 86.4297 65.1271 86.7622C65.6151 87.0748 66.1891 87.1607 66.7575 87.1613L66.7599 85.1613ZM66.091 84.8285C65.8819 84.2178 65.6766 83.397 65.4758 82.7474L63.565 83.3379C63.7049 83.7907 63.9914 84.8704 64.1988 85.4763L66.091 84.8285ZM65.4672 82.7206C65.3046 82.2426 65.0623 81.7674 64.6784 81.3904C64.2771 80.9963 63.77 80.7584 63.1813 80.6973L62.9748 82.6866C63.127 82.7024 63.2086 82.7502 63.277 82.8173C63.3628 82.9016 63.4712 83.0634 63.5737 83.3646L65.4672 82.7206ZM63.3954 80.7436C63.1903 80.6749 62.9628 80.6487 62.8075 80.6372C62.639 80.6248 62.4456 80.6222 62.2768 80.6389L62.4734 82.6292C62.4789 82.6287 62.5013 82.6271 62.5399 82.6271C62.5766 82.6272 62.6183 82.6287 62.66 82.6318C62.7023 82.6349 62.7377 82.6391 62.7629 82.6432C62.793 82.6481 62.7884 82.6495 62.7607 82.6402L63.3954 80.7436ZM63.0998 82.3232C63.7725 81.6158 65.8373 79.7044 66.56 79.0593L65.2282 77.5672C64.5053 78.2125 62.3855 80.1721 61.6505 80.9449L63.0998 82.3232ZM66.6004 79.0213C66.7634 78.8586 67.1958 78.4942 67.5057 78.2709L66.3366 76.6481C65.9619 76.9181 65.4433 77.3505 65.1879 77.6053L66.6004 79.0213ZM57.9332 94.0147L57.9685 93.0154L56.9767 92.9803L56.9341 93.9719L57.9332 94.0147ZM57.7793 95.6295L58.768 95.7791L58.7696 95.7689L58.7709 95.7587L57.7793 95.6295ZM57.3884 104.692L56.3972 104.825L56.5225 105.761L57.4639 105.689L57.3884 104.692ZM58.8705 104.58L58.946 105.577L60.0103 105.496L59.8606 104.44L58.8705 104.58ZM58.8353 102.281L59.8266 102.412L59.8291 102.393L59.8309 102.374L58.8353 102.281ZM59.2648 108.494L59.1143 107.506L57.58 107.739L58.4268 109.04L59.2648 108.494ZM60.1562 109.863L59.3181 110.409L59.6809 110.966L60.3349 110.847L60.1562 109.863ZM58.7249 99.2977L57.7287 99.2099L57.102 106.318L59.6585 99.6559L58.7249 99.2977ZM59.6052 94.0737L60.5659 94.3514L60.9218 93.1196L59.6404 93.0744L59.6052 94.0737ZM56.9341 93.9719C56.9164 94.3868 56.8626 94.9248 56.7877 95.5004L58.7709 95.7587C58.8493 95.1565 58.911 94.5546 58.9323 94.0576L56.9341 93.9719ZM56.7905 95.48C56.56 97.0045 56.2042 99.8414 56.202 101.708L58.202 101.71C58.204 100.004 58.5389 97.294 58.768 95.7791L56.7905 95.48ZM56.202 101.708C56.2005 102.973 56.2977 104.082 56.3972 104.825L58.3795 104.559C58.2908 103.896 58.2006 102.877 58.202 101.71L56.202 101.708ZM57.4639 105.689L58.946 105.577L58.795 103.583L57.3129 103.695L57.4639 105.689ZM59.8606 104.44C59.7401 103.589 59.744 103.035 59.8266 102.412L57.844 102.149C57.7349 102.971 57.7372 103.709 57.8804 104.72L59.8606 104.44ZM59.8309 102.374C59.9267 101.35 60.4441 100.054 61.2162 99.0188C62.0137 97.9493 62.8806 97.4147 63.5721 97.4155L63.5745 95.4155C61.9291 95.4135 60.5424 96.5767 59.6129 97.8232C58.658 99.1037 57.9749 100.742 57.8396 102.188L59.8309 102.374ZM63.5721 97.4155C64.1329 97.4162 64.5769 97.6817 64.9344 98.3336C65.3172 99.0314 65.5519 100.116 65.5502 101.51L67.5502 101.512C67.5521 99.9426 67.2959 98.4802 66.688 97.3718C66.055 96.2175 65.0088 95.4172 63.5745 95.4155L63.5721 97.4155ZM65.5502 101.51C65.5477 103.619 64.8511 104.909 63.8026 105.771C62.7004 106.677 61.0946 107.204 59.1143 107.506L59.4153 109.483C61.5208 109.162 63.5548 108.564 65.0725 107.316C66.6438 106.025 67.5471 104.135 67.5502 101.512L65.5502 101.51ZM58.4268 109.04L59.3181 110.409L60.9942 109.318L60.1029 107.949L58.4268 109.04ZM60.3349 110.847C62.7697 110.405 64.9754 109.565 66.5801 108.046C68.2164 106.496 69.1238 104.338 69.1272 101.495L67.1272 101.493C67.1244 103.875 66.3838 105.477 65.2049 106.593C63.9944 107.74 62.2177 108.473 59.9774 108.88L60.3349 110.847ZM69.1272 101.495C69.1298 99.3802 68.6507 97.551 67.7437 96.218C66.8215 94.8627 65.4533 94.0308 63.8232 94.0288L63.8208 96.0288C64.6987 96.0299 65.4855 96.4545 66.0902 97.3431C66.7099 98.254 67.1295 99.6558 67.1272 101.493L69.1272 101.495ZM63.8232 94.0288C62.2988 94.027 60.9778 94.7728 59.9793 95.7047C58.9782 96.6389 58.2145 97.8364 57.7913 98.9394L59.6585 99.6559C59.9786 98.8219 60.5759 97.8835 61.3438 97.1669C62.1143 96.4478 62.9702 96.0278 63.8208 96.0288L63.8232 94.0288ZM59.721 99.3855C59.8343 98.1005 60.1913 95.6475 60.5659 94.3514L58.6445 93.7961C58.2177 95.2731 57.8466 97.8731 57.7287 99.2099L59.721 99.3855ZM59.6404 93.0744L57.9685 93.0154L57.898 95.0141L59.5699 95.0731L59.6404 93.0744ZM70.7257 121.065L71.5513 121.629L72.0853 120.848L71.3347 120.272L70.7257 121.065ZM66.3207 118.552L66.728 117.639L65.9369 117.286L65.4749 118.018L66.3207 118.552ZM65.5783 119.729L64.7325 119.195L64.1217 120.164L65.1634 120.639L65.5783 119.729ZM69.8692 122.318L69.2211 123.08L70.0675 123.8L70.6948 122.882L69.8692 122.318ZM63.8891 118.207L64.8888 118.181L64.8544 116.85L63.5855 117.254L63.8891 118.207ZM60.9623 118.887L59.9999 118.616L59.5785 120.11L61.1132 119.876L60.9623 118.887ZM61.7068 115.981L62.67 116.25L62.9926 115.094L61.7975 114.985L61.7068 115.981ZM60.016 115.827L60.1067 114.831L59.0577 114.736L59.0168 115.788L60.016 115.827ZM59.4231 119.076L59.5006 120.073L60.2017 120.018L60.3875 119.34L59.4231 119.076ZM55.0151 119.032L55.1503 118.041L53.9208 117.874L54.0182 119.111L55.0151 119.032ZM55.1274 120.457L54.1305 120.536L54.1992 121.408L55.0723 121.456L55.1274 120.457ZM58.9654 120.462L59.8973 120.825L60.4684 119.358L58.8978 119.464L58.9654 120.462ZM54.929 127.487L54.1733 126.832L53.3396 127.794L54.4716 128.376L54.929 127.487ZM56.4101 128.249L55.9527 129.138L56.7083 129.527L57.2138 128.844L56.4101 128.249ZM60.5236 120.293L60.4027 119.3L59.7861 119.375L59.5802 119.961L60.5236 120.293ZM63.9255 119.613L64.2015 120.574L64.9451 120.361L64.9251 119.587L63.9255 119.613ZM64.8466 127.822L65.8451 127.768L65.8067 127.06L65.1265 126.862L64.8466 127.822ZM64.6068 121.799L64.608 120.799L63.5786 120.798L63.6072 121.827L64.6068 121.799ZM64.7912 126.492L64.5874 127.471L65.8362 127.731L65.7905 126.456L64.7912 126.492ZM66.2899 128.394L66.7269 127.494L65.1797 126.743L65.292 128.459L66.2899 128.394ZM69.3083 130.544L68.6365 131.285L69.5166 132.083L70.1529 131.08L69.3083 130.544ZM70.1269 129.253L70.9714 129.789L71.433 129.061L70.781 128.497L70.1269 129.253ZM66.2347 126.893L65.2352 126.925L65.2569 127.6L65.8909 127.832L66.2347 126.893ZM66.1054 123.834L65.1057 123.859L65.1057 123.86L66.1054 123.834ZM66.1268 121.801L67.1241 121.875L67.2039 120.802L66.128 120.801L66.1268 121.801ZM71.3347 120.272C70.3614 119.525 68.1414 118.269 66.728 117.639L65.9135 119.465C67.2346 120.054 69.3057 121.236 70.1167 121.858L71.3347 120.272ZM65.4749 118.018L64.7325 119.195L66.4241 120.262L67.1665 119.085L65.4749 118.018ZM65.1634 120.639C66.3748 121.191 68.3139 122.308 69.2211 123.08L70.5174 121.557C69.4126 120.616 67.2885 119.41 65.9932 118.819L65.1634 120.639ZM70.6948 122.882L71.5513 121.629L69.9002 120.501L69.0437 121.754L70.6948 122.882ZM63.5855 117.254C62.6879 117.54 61.7509 117.755 60.8115 117.899L61.1132 119.876C62.1501 119.718 63.1897 119.479 64.1928 119.16L63.5855 117.254ZM61.9248 119.159C62.0825 118.6 62.2244 118.03 62.3487 117.523C62.4754 117.007 62.5801 116.572 62.67 116.25L60.7436 115.712C60.6427 116.074 60.5278 116.552 60.4063 117.046C60.2824 117.551 60.1475 118.093 59.9999 118.616L61.9248 119.159ZM61.7975 114.985L60.1067 114.831L59.9253 116.823L61.6161 116.977L61.7975 114.985ZM59.0168 115.788C58.9822 116.677 58.7405 117.783 58.4586 118.811L60.3875 119.34C60.6782 118.279 60.9714 116.992 61.0152 115.866L59.0168 115.788ZM59.3456 118.079C58.6377 118.134 57.9631 118.169 57.3342 118.168L57.3318 120.168C58.0328 120.169 58.7644 120.13 59.5006 120.073L59.3456 118.079ZM57.3342 118.168C56.544 118.167 55.7939 118.129 55.1503 118.041L54.88 120.023C55.6421 120.127 56.488 120.167 57.3318 120.168L57.3342 118.168ZM54.0182 119.111L54.1305 120.536L56.1243 120.379L56.0121 118.954L54.0182 119.111ZM55.0723 121.456C55.795 121.496 56.592 121.516 57.3112 121.517L57.3136 119.517C56.6267 119.516 55.8658 119.497 55.1826 119.459L55.0723 121.456ZM57.3112 121.517C57.8852 121.518 58.4591 121.499 59.033 121.46L58.8978 119.464C58.3696 119.5 57.8416 119.518 57.3136 119.517L57.3112 121.517ZM58.0336 120.099C57.2012 122.237 55.6528 125.125 54.1733 126.832L55.6847 128.142C57.3635 126.205 59.0144 123.093 59.8973 120.825L58.0336 120.099ZM54.4716 128.376L55.9527 129.138L56.8674 127.36L55.3864 126.598L54.4716 128.376ZM57.2138 128.844C58.7854 126.721 60.505 123.363 61.4671 120.624L59.5802 119.961C58.6739 122.541 57.0416 125.715 55.6063 127.654L57.2138 128.844ZM60.6446 121.286C61.9308 121.129 63.161 120.873 64.2015 120.574L63.6494 118.652C62.7132 118.921 61.5868 119.156 60.4027 119.3L60.6446 121.286ZM64.9251 119.587L64.8888 118.181L62.8895 118.233L62.9258 119.639L64.9251 119.587ZM63.8645 128.714C63.8642 129.005 63.7848 129.17 63.6976 129.259C63.6181 129.341 63.3975 129.499 62.8116 129.499L62.8092 131.499C63.7622 131.5 64.5682 131.232 65.1307 130.654C65.6855 130.084 65.8637 129.356 65.8645 128.716L63.8645 128.714ZM62.8116 129.499C62.1934 129.498 61.8869 129.37 61.7619 129.28C61.6811 129.222 61.646 129.168 61.6461 129.034L59.6461 129.032C59.6452 129.772 59.9607 130.45 60.5965 130.906C61.1882 131.33 61.9644 131.498 62.8092 131.499L62.8116 129.499ZM61.6461 129.034C61.6462 129.008 61.6459 128.926 61.8247 128.809C62.0209 128.68 62.3897 128.553 62.9457 128.554L62.9481 126.554C62.1171 126.553 61.336 126.738 60.7288 127.136C60.1043 127.545 59.6471 128.203 59.6461 129.032L61.6461 129.034ZM62.9457 128.554C63.5169 128.554 64.0689 128.637 64.5666 128.782L65.1265 126.862C64.4466 126.664 63.7069 126.555 62.9481 126.554L62.9457 128.554ZM63.8481 127.876C63.865 128.187 63.8648 128.466 63.8645 128.714L65.8645 128.716C65.8648 128.47 65.8654 128.141 65.8451 127.768L63.8481 127.876ZM63.6072 121.827C63.6436 123.136 63.7377 125.019 63.7918 126.528L65.7905 126.456C65.7343 124.887 65.6429 123.084 65.6064 121.771L63.6072 121.827ZM64.995 125.513C64.3685 125.383 63.6919 125.32 63.0066 125.319L63.0042 127.319C63.5729 127.32 64.1121 127.372 64.5874 127.471L64.995 125.513ZM63.0066 125.319C61.7781 125.317 60.6163 125.638 59.7337 126.286C58.8311 126.949 58.2414 127.947 58.24 129.163L60.24 129.166C60.2406 128.653 60.4696 128.227 60.9172 127.898C61.3848 127.555 62.1046 127.318 63.0042 127.319L63.0066 125.319ZM58.24 129.163C58.2384 130.452 58.8475 131.437 59.7929 132.058C60.6916 132.648 61.8454 132.884 62.9975 132.886L62.9999 130.886C62.081 130.885 61.3543 130.691 60.8908 130.387C60.4741 130.113 60.2393 129.739 60.24 129.166L58.24 129.163ZM62.9975 132.886C64.3287 132.887 65.4265 132.532 66.2 131.819C66.9799 131.099 67.3068 130.129 67.308 129.155L65.308 129.153C65.3073 129.68 65.1386 130.077 64.8438 130.349C64.5426 130.627 63.9866 130.887 62.9999 130.886L62.9975 132.886ZM67.308 129.155C67.3082 128.948 67.3089 128.651 67.2878 128.328L65.292 128.459C65.3082 128.707 65.3082 128.942 65.308 129.153L67.308 129.155ZM65.8529 129.293C66.9375 129.82 67.8588 130.58 68.6365 131.285L69.9801 129.804C69.1635 129.063 68.0729 128.148 66.7269 127.494L65.8529 129.293ZM70.1529 131.08L70.9714 129.789L69.2823 128.718L68.4638 130.009L70.1529 131.08ZM70.781 128.497C69.7576 127.612 68.344 126.6 66.5785 125.954L65.8909 127.832C67.354 128.367 68.5601 129.221 69.4727 130.01L70.781 128.497ZM67.2342 126.861C67.2156 126.282 67.1874 125.681 67.162 125.145C67.1363 124.602 67.1138 124.136 67.105 123.807L65.1057 123.86C65.1152 124.215 65.139 124.708 65.1642 125.24C65.1898 125.777 65.2172 126.364 65.2352 126.925L67.2342 126.861ZM67.105 123.808C67.0868 123.1 67.0704 122.597 67.1241 121.875L65.1296 121.726C65.0674 122.562 65.0877 123.161 65.1057 123.859L67.105 123.808ZM66.128 120.801L64.608 120.799L64.6056 122.799L66.1256 122.801L66.128 120.801ZM56.95 169.077L57.0373 168.08L56.2243 168.009L55.9915 168.791L56.95 169.077ZM66.8035 175.301L66.977 176.286L67.7924 176.143L67.8034 175.315L66.8035 175.301ZM66.8244 173.724L67.8243 173.738L67.8409 172.485L66.616 172.746L66.8244 173.724ZM58.4888 169.211L59.41 169.601L59.9446 168.335L58.5761 168.215L58.4888 169.211ZM68.8334 162.08L69.8161 161.895L69.6059 160.78L68.5267 161.128L68.8334 162.08ZM64.9753 163.025L64.0512 163.408L64.3578 164.149L65.1479 164.01L64.9753 163.025ZM63.763 159.927L64.7032 159.586L64.4131 158.786L63.5765 158.944L63.763 159.927ZM62.0716 160.248L61.8852 159.265L60.4863 159.531L61.2107 160.757L62.0716 160.248ZM62.8677 161.826L63.7794 161.415L63.7769 161.409L62.8677 161.826ZM63.493 163.213L63.5965 164.208L64.9735 164.065L64.4047 162.803L63.493 163.213ZM56.0262 163.09L56.1582 162.099L54.9839 161.943L55.0268 163.127L56.0262 163.09ZM56.0813 164.611L55.082 164.647L55.114 165.53L55.9944 165.607L56.0813 164.611ZM64.0804 164.582L64.9979 164.185L64.7027 163.503L63.9652 163.589L64.0804 164.582ZM66.1271 169.012L66.0353 170.007L67.7549 170.166L67.0364 168.596L66.1271 169.012ZM63.4674 168.742L63.5473 167.746L62.5931 167.669L62.475 168.619L63.4674 168.742ZM63.3139 169.977L62.3215 169.854L62.1946 170.875L63.2194 170.973L63.3139 169.977ZM67.2082 170.533L67.0022 171.511L67.5451 171.626L67.9294 171.226L67.2082 170.533ZM68.0833 169.622L68.8045 170.315L69.3002 169.799L68.9718 169.163L68.0833 169.622ZM65.5627 164.356L65.4021 163.369L64.1114 163.579L64.6522 164.77L65.5627 164.356ZM69.1166 163.581L69.3691 164.549L70.2723 164.313L70.0993 163.396L69.1166 163.581ZM55.9915 168.791C55.6751 169.854 55.4346 171.006 55.4335 171.963L57.4335 171.965C57.4343 171.288 57.6143 170.35 57.9084 169.362L55.9915 168.791ZM55.4335 171.963C55.4317 173.455 56.0641 174.707 57.2612 175.548C58.4123 176.357 60.0007 176.73 61.8618 176.733L61.8642 174.733C60.2292 174.731 59.1015 174.397 58.4112 173.912C57.7668 173.459 57.4325 172.829 57.4335 171.965L55.4335 171.963ZM61.8618 176.733C64.4318 176.736 65.7685 176.499 66.977 176.286L66.63 174.317C65.4819 174.519 64.2721 174.735 61.8642 174.733L61.8618 176.733ZM67.8034 175.315L67.8243 173.738L65.8245 173.711L65.8036 175.288L67.8034 175.315ZM66.616 172.746C65.3319 173.02 64.2836 173.234 61.885 173.232L61.8826 175.232C64.462 175.235 65.6562 174.996 67.0327 174.703L66.616 172.746ZM61.885 173.232C60.5642 173.23 59.8305 172.991 59.4479 172.716C59.1294 172.486 58.9533 172.16 58.954 171.587L56.954 171.585C56.9527 172.664 57.3354 173.659 58.2794 174.339C59.1591 174.972 60.3914 175.23 61.8826 175.232L61.885 173.232ZM58.954 171.587C58.9545 171.173 59.1476 170.222 59.41 169.601L57.5676 168.822C57.2203 169.644 56.9548 170.859 56.954 171.585L58.954 171.587ZM58.5761 168.215L57.0373 168.08L56.8627 170.073L58.4015 170.208L58.5761 168.215ZM68.5267 161.128C67.2831 161.529 66.055 161.821 64.8027 162.04L65.1479 164.01C66.4801 163.777 67.7987 163.464 69.1401 163.032L68.5267 161.128ZM65.8993 162.643C65.4847 161.641 65.1502 160.82 64.7032 159.586L62.8228 160.267C63.2847 161.543 63.6322 162.395 64.0512 163.408L65.8993 162.643ZM63.5765 158.944L61.8852 159.265L62.258 161.23L63.9494 160.909L63.5765 158.944ZM61.2107 160.757C61.4858 161.222 61.6382 161.543 61.9585 162.242L63.7769 161.409C63.4529 160.702 63.2642 160.3 62.9325 159.739L61.2107 160.757ZM61.956 162.237L62.5813 163.624L64.4047 162.803L63.7794 161.415L61.956 162.237ZM63.3895 162.219C61.2966 162.437 58.8108 162.452 56.1582 162.099L55.8942 164.082C58.7126 164.457 61.3569 164.441 63.5965 164.208L63.3895 162.219ZM55.0268 163.127L55.082 164.647L57.0807 164.574L57.0255 163.054L55.0268 163.127ZM55.9944 165.607C58.9137 165.862 61.6813 165.867 64.1956 165.576L63.9652 163.589C61.6148 163.861 58.9864 163.86 56.1683 163.614L55.9944 165.607ZM63.1628 164.98C63.7344 166.299 64.7053 168.308 65.2177 169.428L67.0364 168.596C66.4876 167.396 65.5632 165.489 64.9979 164.185L63.1628 164.98ZM66.2188 168.016C65.6601 167.964 64.2545 167.802 63.5473 167.746L63.3875 169.739C64.1241 169.798 65.3402 169.943 66.0353 170.007L66.2188 168.016ZM62.475 168.619L62.3215 169.854L64.3063 170.101L64.4597 168.866L62.475 168.619ZM63.2194 170.973C64.4106 171.086 66.233 171.35 67.0022 171.511L67.4143 169.554C66.5499 169.372 64.6489 169.1 63.4084 168.982L63.2194 170.973ZM67.9294 171.226L68.8045 170.315L67.3622 168.929L66.4871 169.84L67.9294 171.226ZM68.9718 169.163C68.1684 167.608 67.1532 165.44 66.4731 163.942L64.6522 164.77C65.3364 166.276 66.3681 168.48 67.1949 170.081L68.9718 169.163ZM65.7232 165.343C66.9243 165.148 68.1924 164.856 69.3691 164.549L68.864 162.614C67.722 162.912 66.5195 163.187 65.4021 163.369L65.7232 165.343ZM70.0993 163.396L69.8161 161.895L67.8507 162.265L68.1339 163.767L70.0993 163.396ZM57.3123 183.781L58.2985 183.947L58.4899 182.807L57.3343 182.781L57.3123 183.781ZM55.4883 183.741L55.5104 182.741L54.2544 182.713L54.5091 183.944L55.4883 183.741ZM55.8033 190.429L56.798 190.326L56.7967 190.315L55.8033 190.429ZM63.3624 192.813L64.3055 193.146L64.4996 192.595L64.1158 192.156L63.3624 192.813ZM62.1671 191.444L62.9204 190.786L61.6774 189.362L61.1996 191.191L62.1671 191.444ZM57.2857 190.051L56.2893 190.136L56.2902 190.146L57.2857 190.051ZM57.1581 185.605L56.1589 185.565L56.1584 185.576L56.1582 185.588L57.1581 185.605ZM67.1157 184.306L67.9072 183.695L67.4685 183.126L66.7897 183.36L67.1157 184.306ZM65.633 184.817L65.3071 183.872L63.9588 184.337L64.8554 185.446L65.633 184.817ZM68.8709 194.131L67.8753 194.225L68.0001 195.548L69.2372 195.061L68.8709 194.131ZM70.4106 193.525L70.7769 194.455L71.4684 194.183L71.4072 193.442L70.4106 193.525ZM57.3343 182.781L55.5104 182.741L55.4663 184.741L57.2903 184.781L57.3343 182.781ZM54.5091 183.944C54.5796 184.284 54.6009 184.963 54.6003 185.412L56.6003 185.414C56.6008 184.989 56.586 184.11 56.4676 183.538L54.5091 183.944ZM54.6003 185.412C54.599 186.509 54.6143 188.844 54.8098 190.544L56.7967 190.315C56.6162 188.746 56.599 186.521 56.6003 185.414L54.6003 185.412ZM54.8086 190.533C55.0707 193.056 55.653 194.903 56.4932 196.147C57.3567 197.425 58.5133 198.083 59.7841 198.084L59.7865 196.084C59.2903 196.083 58.7095 195.855 58.1505 195.027C57.5682 194.165 57.043 192.686 56.7979 190.326L54.8086 190.533ZM59.7841 198.084C60.7638 198.085 61.6366 197.654 62.3854 196.809C63.1026 195.998 63.7261 194.789 64.3055 193.146L62.4193 192.481C61.874 194.028 61.3548 194.955 60.8877 195.483C60.4521 195.975 60.0988 196.084 59.7865 196.084L59.7841 198.084ZM64.1158 192.156L62.9204 190.786L61.4137 192.101L62.6091 193.471L64.1158 192.156ZM61.1996 191.191C60.9632 192.096 60.6462 192.967 60.3001 193.587C60.1259 193.9 59.9693 194.103 59.848 194.216C59.7236 194.333 59.7201 194.279 59.8267 194.279L59.8243 196.279C60.4154 196.28 60.8848 195.985 61.2127 195.678C61.5438 195.369 61.819 194.97 62.047 194.561C62.5054 193.739 62.8747 192.691 63.1346 191.697L61.1996 191.191ZM59.8267 194.279C59.7634 194.279 59.4577 194.233 59.0736 193.42C58.7123 192.655 58.4261 191.478 58.2813 189.956L56.2902 190.146C56.4456 191.779 56.7643 193.214 57.2653 194.275C57.7435 195.287 58.5576 196.278 59.8243 196.279L59.8267 194.279ZM58.2821 189.966C58.1549 188.473 58.1379 186.781 58.1579 185.622L56.1582 185.588C56.1375 186.784 56.1543 188.55 56.2894 190.136L58.2821 189.966ZM58.1573 185.645C58.1768 185.154 58.2333 184.335 58.2985 183.947L56.3261 183.615C56.2382 184.139 56.1786 185.068 56.1589 185.565L58.1573 185.645ZM66.7897 183.36L65.3071 183.872L65.959 185.762L67.4416 185.251L66.7897 183.36ZM64.8554 185.446C66.4655 187.438 67.5657 190.941 67.8753 194.225L69.8664 194.037C69.5382 190.556 68.3673 186.609 66.4107 184.188L64.8554 185.446ZM69.2372 195.061L70.7769 194.455L70.0443 192.594L68.5045 193.2L69.2372 195.061ZM71.4072 193.442C71.1326 190.119 69.737 186.065 67.9072 183.695L66.3241 184.917C67.8711 186.921 69.1642 190.584 69.414 193.607L71.4072 193.442Z" fill="url(#paint4_linear)"/>
</g>
<defs>
<linearGradient id="paint0_linear" x1="53.4627" y1="95.2481" x2="140.23" y2="95.2481" gradientUnits="userSpaceOnUse">
<stop offset="0.0220994" stop-color="#2B93CD"/>
<stop offset="0.519337" stop-color="#BF2BCD"/>
<stop offset="0.9944" stop-color="#2B93CD"/>
</linearGradient>
<linearGradient id="paint1_linear" x1="74.4627" y1="114.248" x2="161.23" y2="114.248" gradientUnits="userSpaceOnUse">
<stop offset="0.0220994" stop-color="#2B93CD"/>
<stop offset="0.519337" stop-color="#5ECDC5"/>
<stop offset="0.9944" stop-color="#2B93CD"/>
</linearGradient>
<linearGradient id="paint2_linear" x1="99.4563" y1="132.737" x2="187.257" y2="132.737" gradientUnits="userSpaceOnUse">
<stop stop-color="#2B93CD"/>
<stop offset="0.480663" stop-color="#2BCD8C"/>
<stop offset="1" stop-color="#2B93CD"/>
</linearGradient>
<linearGradient id="paint3_linear" x1="65.9583" y1="26.0153" x2="65.7666" y2="185.399" gradientUnits="userSpaceOnUse">
<stop stop-color="white"/>
<stop offset="1" stop-color="#9F1ADA" stop-opacity="0"/>
</linearGradient>
<linearGradient id="paint4_linear" x1="41" y1="201.5" x2="41.5" y2="29.5" gradientUnits="userSpaceOnUse">
<stop stop-color="#B12BCD"/>
<stop offset="0.303867" stop-color="#5ECDC5"/>
<stop offset="0.611193" stop-color="#2B93CD"/>
<stop offset="0.927352" stop-color="#CD2B8A"/>
</linearGradient>
<clipPath id="clip0">
<rect width="200" height="200" fill="white"/>
</clipPath>
</defs>
</svg>
